<?xml version="1.0" encoding="utf-8"?>
<!-- Generator: Adobe Illustrator 16.0.4, SVG Export Plug-In . SVG Version: 6.00 Build 0)  -->
<!DOCTYPE svg PUBLIC "-//W3C//DTD SVG 1.1//EN" "http://www.w3.org/Graphics/SVG/1.1/DTD/svg11.dtd">
<svg version="1.1" id="Ebene_1" xmlns="http://www.w3.org/2000/svg" xmlns:xlink="http://www.w3.org/1999/xlink" x="0px" y="0px"
	 width="100px" height="54px" viewBox="0 0 100 54" enable-background="new 0 0 100 54" xml:space="preserve">
<title>Group Copy</title>
<desc>Created with Sketch.</desc>
<g id="Symbols">
	<g id="D-Header3" transform="translate(-139.000000, -11.000000)">
		<g id="Group-Copy" transform="translate(139.000000, 11.000000)">
			<g id="Group-3">
				<g id="Clip-2">
				</g>
				<defs>
					<filter id="Adobe_OpacityMaskFilter" filterUnits="userSpaceOnUse" x="0" y="0.009" width="96.068" height="53.991">
						<feColorMatrix  type="matrix" values="1 0 0 0 0  0 1 0 0 0  0 0 1 0 0  0 0 0 1 0"/>
					</filter>
				</defs>
				<mask maskUnits="userSpaceOnUse" x="0" y="0.009" width="96.068" height="53.991" id="mask-2">
					<g filter="url(#Adobe_OpacityMaskFilter)">
						<polygon id="path-1" fill="#FFFFFF" points="0.017,0.009 96.068,0.009 96.068,54 0.017,54 						"/>
					</g>
				</mask>
				<path id="Fill-1" mask="url(#mask-2)" fill="#10182A" d="M46.33,0.621L16.591,37.336c-1.051,1.316-0.209,2.653,1.84,2.653
					c0,0,9.881,0.001,10.312,0.001c0.334,0,0.469-0.205,0.549-0.302l11.91-14.417c0.209-0.256,0.588-0.081,0.491,0.264l-2.222,7.93
					c-0.668,2.337-0.274,6.525,5.032,6.525l12.354,0.001c0.333,0,0.468-0.204,0.549-0.302l5.687-6.884
					c0.121-0.164,0.423-0.078,0.34,0.19l-0.765,2.486c-0.315,0.966-0.47,4.508,3.604,4.508l10.505-0.001
					c1.799,0,2.806-1.491,1.593-2.989L62.35,17.201c-0.24-0.297-0.591-0.284-0.826,0c0,0-7.719,9.341-8.317,10.066
					c-0.317,0.385-0.706,0.094-0.593-0.313l3.022-10.796c0.758-2.703,0.306-7.157-2.462-10.418l-4.352-5.119
					C48.132-0.185,47-0.205,46.33,0.621z M12.333,43.009l-4.63,7.031l-0.892-7.031H4.135C4.068,43.112,0,53.811,0,53.811h2.805
					l2.242-6.578c0,0,0.973,5.79,0.978,5.818c0.089,0.486,0.391,0.805,0.95,0.802c0.571-0.003,0.978-0.505,1.094-0.665l3.995-5.924
					l-1.167,6.547l2.508,0.004l1.659-10.803L12.333,43.009z M6.025,53.051c-0.006-0.028-0.011-0.059-0.017-0.089
					C6.012,52.992,6.018,53.021,6.025,53.051z M7.689,53.614c0.031-0.026,0.06-0.054,0.088-0.083
					C7.749,53.561,7.72,53.588,7.689,53.614z M86.809,45.185l0.313-2.17h-5.951c-0.827,0-1.563,0.596-1.67,1.356l-0.245,1.762
					v-0.006l-0.881,6.327c0,0-0.246,1.382,1.326,1.378l0,0h5.92l0.281-2.173h-4.959l0.303-2.144h4.655L86.2,47.33h-4.655
					l0.301-2.146H86.809z M28.001,51.532l1.201-8.521h-2.562l-1.314,9.442l0,0c0,0-0.246,1.382,1.327,1.378l-0.001-0.001
					c0.002,0,0.005,0.001,0.008,0.001h5.277l0.292-2.3H28.001z M96.068,46.49c0,1.349-0.704,2.496-1.892,3.092l1.786,4.25h-2.934
					l-1.381-3.697h-1.645l-0.521,3.697H87.02l1.321-9.459c0.105-0.763,0.843-1.358,1.666-1.358h2.38
					C94.488,43.015,96.068,44.507,96.068,46.49z M93.596,46.586c-0.014-0.777-0.596-1.388-1.334-1.388h-1.575l-0.388,2.753h1.977
					C93.002,47.951,93.582,47.35,93.596,46.586z M76.324,43.012l-2.705,6.215l-0.805-5.273c-0.104-0.664-0.714-1.054-1.4-1.054
					c-0.688,0-1.209,0.401-1.452,1.018l-2.286,5.31l-0.971-6.215h-2.662l1.674,9.943c0.102,0.602,0.644,0.995,1.396,0.995
					c0.679,0,1.231-0.358,1.501-0.968l2.266-5.286l0.778,5.251c0.1,0.618,0.644,1.009,1.418,1.009c0.665,0,1.184-0.369,1.476-0.972
					l4.465-9.973H76.324z M58.652,42.858c2.902,0,5.175,2.443,5.175,5.563c0,3.129-2.272,5.578-5.175,5.578
					c-2.91,0-5.186-2.449-5.186-5.578C53.467,45.302,55.742,42.858,58.652,42.858z M58.652,45.172c-1.582,0-2.785,1.396-2.799,3.25
					c0.014,1.854,1.211,3.252,2.787,3.252c1.596,0,2.799-1.398,2.799-3.252C61.439,46.601,60.213,45.172,58.652,45.172z
					 M48.895,43.012c2.161,0,3.922,1.705,3.922,3.803c0,2.09-1.761,3.786-3.922,3.786h-2.036l-0.434,3.231H43.92l1.318-9.459
					c0.112-0.763,0.842-1.361,1.671-1.361H48.895z M50.371,46.812c-0.012-0.904-0.706-1.614-1.573-1.614h-1.185l-0.443,3.217h1.628
					C49.666,48.415,50.359,47.71,50.371,46.812z M40.031,53.832h2.544l1.5-10.817H41.53L40.031,53.832z M40.455,43.012h-8.346
					l-0.328,2.303h2.895l-1.175,8.518h2.561l1.174-8.518h2.907L40.455,43.012z M21.635,49.76c-0.188,1.324-0.913,1.926-1.978,1.926
					c-1.088,0-1.659-0.634-1.67-1.558c0-0.104,0-0.223,0.025-0.335l0.956-6.781h-2.561l-0.948,6.928
					c-0.031,0.191-0.043,0.369-0.043,0.54c0,2.075,1.612,3.514,4.202,3.514c2.486,0,4.191-1.384,4.561-4.017l0.968-6.965h-2.561
					L21.635,49.76z M63.424,32.861v0.002V32.861z"/>
			</g>
		</g>
	</g>
</g>
</svg>
